<svg width="34" height="34" viewBox="0 0 34 34" fill="none" xmlns="http://www.w3.org/2000/svg">
<g filter="url(#filter0_d_9000_16725)">
<circle cx="17" cy="14" r="12" fill="#DF512C"/>
</g>
<path d="M16.0076 16.576C15.9542 16.576 15.9062 16.56 15.8636 16.528C15.8316 16.4853 15.8156 16.4373 15.8156 16.384V15.728C15.8156 15.3653 15.8796 15.0507 16.0076 14.784C16.1356 14.5173 16.2849 14.2933 16.4556 14.112C16.6369 13.9307 16.8769 13.7227 17.1756 13.488C17.5596 13.1787 17.8476 12.9013 18.0396 12.656C18.2316 12.4 18.3276 12.0853 18.3276 11.712C18.3276 11.296 18.2049 10.9653 17.9596 10.72C17.7249 10.464 17.4102 10.336 17.0156 10.336C16.5996 10.336 16.2636 10.4693 16.0076 10.736C15.7516 11.0027 15.6236 11.344 15.6236 11.76V12.096C15.6236 12.2133 15.5596 12.272 15.4316 12.272L13.9596 12.208C13.9062 12.208 13.8582 12.1867 13.8156 12.144C13.7836 12.1013 13.7676 12.0533 13.7676 12V11.76C13.7676 11.152 13.9062 10.6133 14.1836 10.144C14.4609 9.664 14.8502 9.296 15.3516 9.04C15.8529 8.77333 16.4236 8.64 17.0636 8.64C18.0129 8.64 18.7702 8.91733 19.3356 9.472C19.9116 10.016 20.1996 10.7413 20.1996 11.648C20.1996 12.1173 20.1249 12.5227 19.9756 12.864C19.8369 13.2053 19.6662 13.4827 19.4636 13.696C19.2609 13.9093 18.9942 14.1493 18.6636 14.416C18.3222 14.6827 18.0716 14.9173 17.9116 15.12C17.7516 15.312 17.6716 15.552 17.6716 15.84V16.384C17.6716 16.4373 17.6502 16.4853 17.6076 16.528C17.5756 16.56 17.5329 16.576 17.4796 16.576H16.0076ZM16.7276 20.016C16.3969 20.016 16.1249 19.9093 15.9116 19.696C15.6982 19.4827 15.5916 19.2107 15.5916 18.88C15.5916 18.5493 15.6982 18.2827 15.9116 18.08C16.1249 17.8667 16.3969 17.76 16.7276 17.76C17.0582 17.76 17.3302 17.8667 17.5436 18.08C17.7569 18.2827 17.8636 18.5493 17.8636 18.88C17.8636 19.2107 17.7569 19.4827 17.5436 19.696C17.3302 19.9093 17.0582 20.016 16.7276 20.016Z" fill="white"/>
<defs>
<filter id="filter0_d_9000_16725" x="0" y="0" width="34" height="34" filterUnits="userSpaceOnUse" color-interpolation-filters="sRGB">
<feFlood flood-opacity="0" result="BackgroundImageFix"/>
<feColorMatrix in="SourceAlpha" type="matrix" values="0 0 0 0 0 0 0 0 0 0 0 0 0 0 0 0 0 0 127 0" result="hardAlpha"/>
<feOffset dy="3"/>
<feGaussianBlur stdDeviation="2.5"/>
<feComposite in2="hardAlpha" operator="out"/>
<feColorMatrix type="matrix" values="0 0 0 0 0 0 0 0 0 0 0 0 0 0 0 0 0 0 0.1 0"/>
<feBlend mode="normal" in2="BackgroundImageFix" result="effect1_dropShadow_9000_16725"/>
<feBlend mode="normal" in="SourceGraphic" in2="effect1_dropShadow_9000_16725" result="shape"/>
</filter>
</defs>
</svg>
