<svg width="24" height="25" viewBox="0 0 24 25" fill="none" xmlns="http://www.w3.org/2000/svg">
<g clip-path="url(#clip0_9073_14089)">
<path d="M0.516069 5.81229C0.640736 5.45015 0.713936 5.05882 0.899669 4.73135C1.45174 3.75802 2.31627 3.26055 3.43727 3.25309C5.1186 3.24189 11.2984 3.24829 12.9798 3.25095C13.3717 3.25155 13.6343 3.48735 13.6375 3.82269C13.6406 4.16155 13.3635 4.40402 12.9655 4.40429C11.3143 4.40535 5.16487 4.40262 3.5138 4.40569C2.61407 4.40735 1.95967 4.89429 1.73587 5.73375C1.6898 5.90649 1.67767 6.09269 1.6776 6.27269C1.6746 11.2184 1.67414 16.1642 1.6762 21.1099C1.6766 22.0363 2.13994 22.685 2.9666 22.9141C3.1534 22.9659 3.3546 22.9861 3.5492 22.9862C8.8812 22.99 14.2132 22.99 19.5452 22.9886C20.6791 22.9882 21.4158 22.2457 21.4173 21.1055C21.4193 19.462 21.4172 12.243 21.4185 10.5995C21.4187 10.2688 21.5913 10.0262 21.8598 9.96582C22.2136 9.88629 22.5549 10.1415 22.5645 10.5123C22.5764 10.974 22.5698 11.4362 22.5692 11.8982C22.5675 13.2085 22.5851 20.0945 22.5571 21.4042C22.5261 22.8528 21.2939 24.0712 19.844 24.1334C19.7381 24.1379 19.6321 24.1418 19.5261 24.1419C14.2017 24.1423 8.8772 24.14 3.5528 24.1441C2.38627 24.145 1.4806 23.6768 0.900536 22.6634C0.713736 22.337 0.640869 21.9454 0.515869 21.5836C0.515869 16.3265 0.515869 11.0695 0.515869 5.81242L0.516069 5.81229Z" fill="white"/>
<path d="M23.7859 5.03558C23.7763 5.84525 23.4076 6.60958 22.7538 7.26171C19.5567 10.4505 16.3659 13.6458 13.1729 16.8388C12.3266 17.6852 11.4869 18.5383 10.6282 19.372C10.461 19.5344 10.2347 19.6712 10.0114 19.735C8.16641 20.262 6.31521 20.7674 4.46728 21.2841C4.15961 21.3702 3.87375 21.3777 3.63428 21.1332C3.40308 20.8972 3.41401 20.6188 3.49701 20.3216C4.01541 18.4648 4.52381 16.605 5.05121 14.7507C5.11015 14.5434 5.23241 14.3292 5.38421 14.1769C9.43615 10.1116 13.4939 6.05225 17.5552 1.99638C18.9085 0.644845 20.7981 0.653712 22.1552 2.00451C22.4315 2.27951 22.7117 2.55131 22.9759 2.83765C23.4992 3.40471 23.7829 4.14958 23.786 5.03558H23.7859ZM16.9259 4.68965C13.5745 8.04105 10.2063 11.4092 6.85901 14.7566C7.90915 15.8065 8.98488 16.882 10.0235 17.9204C13.3759 14.5681 16.744 11.2 20.0907 7.85331C19.0409 6.80391 17.9654 5.72878 16.9259 4.68965ZM21.1353 6.80358C21.4145 6.55031 21.7453 6.30338 22.01 5.99891C22.5278 5.40351 22.535 4.47285 22.0221 3.87398C21.6762 3.47011 21.2987 3.08365 20.888 2.74731C20.3519 2.30825 19.7062 2.23331 19.1107 2.57491C18.6581 2.83451 18.2858 3.23425 17.8914 3.56045C19.0156 4.68445 20.0949 5.76351 21.1352 6.80358H21.1353ZM6.10828 16.1037C5.78708 17.2658 5.46208 18.4417 5.12615 19.6572C6.34988 19.3175 7.52021 18.9926 8.67288 18.6726C7.81401 17.8124 6.96588 16.9627 6.10828 16.1037Z" fill="white"/>
</g>
<defs>
<clipPath id="clip0_9073_14089">
<rect width="24" height="24" fill="white" transform="translate(0 0.5)"/>
</clipPath>
</defs>
</svg>
