<svg width="24" height="24" viewBox="0 0 24 24" fill="none" xmlns="http://www.w3.org/2000/svg">
<path d="M18.5 9.5V14.5M12 14.5C12.663 14.5 13.2989 14.2366 13.7678 13.7678C14.2366 13.2989 14.5 12.663 14.5 12C14.5 11.337 14.2366 10.7011 13.7678 10.2322C13.2989 9.76339 12.663 9.5 12 9.5C11.337 9.5 10.7011 9.76339 10.2322 10.2322C9.7634 10.7011 9.50001 11.337 9.50001 12C9.50001 12.663 9.7634 13.2989 10.2322 13.7678C10.7011 14.2366 11.337 14.5 12 14.5ZM9.00001 18C9.00001 18.75 8.79001 19.46 8.42001 20.06C8.06748 20.6525 7.56672 21.143 6.96705 21.4831C6.36737 21.8233 5.68944 22.0014 5.00001 22C4.31057 22.0014 3.63265 21.8233 3.03297 21.4831C2.43329 21.143 1.93254 20.6525 1.58001 20.06C1.19935 19.4404 0.998531 18.7272 1.00001 18C1.00001 15.79 2.79001 14 5.00001 14C7.21001 14 9.00001 15.79 9.00001 18Z" stroke="#021442" stroke-width="1.5" stroke-miterlimit="10" stroke-linecap="round" stroke-linejoin="round"/>
<path d="M3.44092 18L4.43092 18.99L6.56092 17.02" stroke="#021442" stroke-width="1.5" stroke-linecap="round" stroke-linejoin="round"/>
<path d="M2 15.3V9C2 5.5 4 4 7 4H17C20 4 22 5.5 22 9V15C22 18.5 20 20 17 20H8.5" stroke="#021442" stroke-width="1.5" stroke-miterlimit="10" stroke-linecap="round" stroke-linejoin="round"/>
</svg>
