<svg width="164" height="165" viewBox="0 0 164 165" fill="none" xmlns="http://www.w3.org/2000/svg">
<circle cx="79.5" cy="84.6082" r="50.5" stroke="#92CD91" stroke-width="4"/>
<path d="M99.7621 65.111C98.7027 65.1449 97.6976 65.593 96.961 66.36C86.9802 76.4228 79.4235 84.7709 70.0314 94.3812L59.7178 85.6067L59.7178 85.6061C58.8948 84.9011 57.8271 84.5542 56.7493 84.641C55.6721 84.7284 54.6728 85.2422 53.972 86.0707C53.2712 86.8986 52.9263 87.9728 53.0132 89.0571C53.0995 90.1409 53.6108 91.1462 54.4337 91.8512L67.6757 103.124L67.6763 103.123C68.4571 103.796 69.4622 104.147 70.4889 104.105C71.5162 104.063 72.4898 103.633 73.2148 102.899C84.1643 91.8603 91.9735 83.0265 102.755 72.1565C103.552 71.3826 104.002 70.3158 104 69.2013C103.998 68.0868 103.546 67.0211 102.746 66.2497C101.947 65.478 100.87 65.0669 99.763 65.1114L99.7621 65.111Z" fill="#92CD91"/>
</svg>
