<svg width="15" height="15" viewBox="0 0 15 15" fill="none" xmlns="http://www.w3.org/2000/svg">
<path d="M12.3554 0.33597C12.9445 -0.144264 13.8141 -0.109582 14.3632 0.439485C14.912 0.988569 14.9459 1.85727 14.4657 2.44632L14.3632 2.56058L9.96766 6.95511L14.5604 11.5479L14.6639 11.6621C15.1439 12.2513 15.1094 13.12 14.5604 13.669C14.0115 14.2178 13.1427 14.2524 12.5536 13.7725L12.4393 13.669L7.84657 9.0762L3.33094 13.5928C2.74523 14.1782 1.79556 14.1782 1.20985 13.5928C0.624061 13.007 0.624061 12.0565 1.20985 11.4707L5.72547 6.95511L1.40711 2.63675C0.821786 2.05097 0.821582 1.10131 1.40711 0.515657C1.9929 -0.0701294 2.9434 -0.0701294 3.52918 0.515657L7.84657 4.83304L12.2421 0.439485L12.3554 0.33597Z" fill="#404040"/>
</svg>
