<svg width="88" height="89" viewBox="0 0 88 89" fill="none" xmlns="http://www.w3.org/2000/svg">
<path d="M43.9232 57.4994C41.6293 57.4994 40.1 55.969 40.1 53.6733V34.5429C40.1 32.2472 41.6293 30.7168 43.9232 30.7168C46.2171 30.7168 47.7464 32.2472 47.7464 34.5429V53.6733C47.7464 55.969 46.2171 57.4994 43.9232 57.4994Z" fill="#021442"/>
<path d="M47.7464 65.1515C47.7464 67.2645 46.0346 68.9776 43.9232 68.9776C41.8118 68.9776 40.1 67.2645 40.1 65.1515C40.1 63.0386 41.8118 61.3254 43.9232 61.3254C46.0346 61.3254 47.7464 63.0386 47.7464 65.1515Z" fill="#021442"/>
<path d="M43.9232 7.76033C45.0702 7.76033 46.2171 8.52555 46.5994 9.67337L79.8614 76.2473C81.0084 78.1603 79.4791 80.8386 77.1852 80.8386H10.6612C8.36728 80.8386 6.83799 78.5429 7.98495 76.2473L41.2469 9.67337C41.6293 8.52555 42.7762 7.76033 43.9232 7.76033ZM43.9232 0.108154C39.7176 0.108154 36.2768 2.40381 34.3651 6.22989L1.10317 72.4212C-0.426121 75.8647 -0.426121 79.6908 1.48549 82.7516C3.3971 86.1951 6.83799 88.1082 10.6612 88.1082H77.1852C81.0084 88.1082 84.4493 86.1951 86.3609 83.1342C88.2725 80.0734 88.6548 75.8647 86.7432 72.8038L53.4812 6.22989C51.5696 2.40381 48.1287 0.108154 43.9232 0.108154Z" fill="#021442"/>
</svg>
