<svg width="24" height="24" viewBox="0 0 24 24" fill="none" xmlns="http://www.w3.org/2000/svg">
<path d="M22 10.0834H2M22 12.0001V8.35841C22 7.28499 22 6.74826 21.782 6.33827C21.5903 5.97763 21.2843 5.68442 20.908 5.50066C20.4802 5.29175 19.9201 5.29175 18.8 5.29175H5.2C4.0799 5.29175 3.51984 5.29175 3.09202 5.50066C2.7157 5.68441 2.40973 5.97762 2.21799 6.33827C2 6.74826 2 7.28499 2 8.35841V15.6417C2 16.7152 2 17.2519 2.21799 17.6619C2.40973 18.0225 2.71569 18.3158 3.09202 18.4995C3.51984 18.7084 4.0799 18.7084 5.2 18.7084H12" stroke="#021442" stroke-width="1.5" stroke-linecap="round" stroke-linejoin="round"/>
<rect x="14" y="13.5" width="9" height="9" rx="4.5" fill="#279CCD"/>
<path d="M18.5 20.875V15.125M15.5 18H21.5" stroke="white" stroke-width="1.5" stroke-linecap="round" stroke-linejoin="round"/>
</svg>
