<svg width="24" height="25" viewBox="0 0 24 25" fill="none" xmlns="http://www.w3.org/2000/svg">
<path d="M6.9 21.2082C8.4 22.1082 10.2 22.6082 12 22.6082C17.5 22.6082 22 18.1082 22 12.6082C22 7.10815 17.5 2.60815 12 2.60815C6.5 2.60815 2 7.10815 2 12.6082C2 14.4082 2.5 16.1082 3.3 17.6082L2.44 20.9142C2.39563 21.0848 2.39718 21.2642 2.4445 21.4341C2.49181 21.6039 2.58321 21.7583 2.70941 21.8814C2.83562 22.0046 2.99215 22.0922 3.16313 22.1354C3.33411 22.1785 3.51347 22.1757 3.683 22.1272L6.9 21.2082Z" stroke="white" stroke-width="1.5" stroke-miterlimit="10" stroke-linecap="round" stroke-linejoin="round"/>
<path d="M16.5 15.4562C16.5 15.6182 16.464 15.7852 16.387 15.9472C16.3084 16.1145 16.2053 16.2693 16.081 16.4062C15.86 16.6492 15.617 16.8242 15.341 16.9372C15.071 17.0502 14.778 17.1082 14.463 17.1082C14.003 17.1082 13.512 17.0002 12.993 16.7802C12.4443 16.5423 11.9243 16.243 11.443 15.8882C10.9195 15.5057 10.4254 15.0846 9.965 14.6282C9.50946 14.1703 9.08926 13.6785 8.708 13.1572C8.35762 12.68 8.06115 12.1655 7.824 11.6232C7.608 11.1082 7.5 10.6182 7.5 10.1512C7.5 9.84515 7.554 9.55315 7.662 9.28315C7.77 9.00815 7.942 8.75615 8.181 8.53115C8.469 8.24715 8.784 8.10815 9.118 8.10815C9.244 8.10815 9.37 8.13515 9.483 8.18915C9.6 8.24315 9.703 8.32415 9.785 8.44115L10.831 9.91315C10.911 10.0252 10.971 10.1292 11.011 10.2282C11.051 10.3222 11.074 10.4172 11.074 10.5022C11.0727 10.6156 11.0398 10.7264 10.979 10.8222C10.9096 10.9392 10.8248 11.0465 10.727 11.1412L10.384 11.4972C10.3601 11.5205 10.3414 11.5486 10.329 11.5796C10.3166 11.6106 10.3108 11.6438 10.312 11.6772C10.312 11.7122 10.317 11.7442 10.326 11.7802C10.339 11.8162 10.353 11.8432 10.362 11.8702C10.442 12.0192 10.582 12.2122 10.781 12.4462C10.984 12.6802 11.2 12.9192 11.434 13.1572C11.678 13.3962 11.912 13.6162 12.151 13.8192C12.385 14.0162 12.579 14.1512 12.732 14.2322L12.814 14.2692C12.8499 14.282 12.8879 14.2881 12.926 14.2872C12.9605 14.2879 12.9948 14.2814 13.0266 14.2682C13.0585 14.2549 13.0872 14.2352 13.111 14.2102L13.453 13.8722C13.566 13.7602 13.674 13.6752 13.778 13.6202C13.8736 13.5592 13.9846 13.5266 14.098 13.5262C14.1927 13.5276 14.2861 13.5476 14.373 13.5852C14.472 13.6252 14.576 13.6832 14.688 13.7602L16.18 14.8182C16.2881 14.8885 16.3741 14.988 16.428 15.1052C16.4747 15.2163 16.4992 15.3356 16.5 15.4562Z" stroke="white" stroke-width="1.5" stroke-miterlimit="10"/>
</svg>
