<svg width="88" height="89" viewBox="0 0 88 89" fill="none" xmlns="http://www.w3.org/2000/svg">
<path d="M80.6667 36.7749V47.7749C80.6667 62.4415 73.3333 69.7749 58.6667 69.7749H56.8333C55.6967 69.7749 54.5967 70.3249 53.9 71.2415L48.4 78.5749C45.98 81.8015 42.02 81.8015 39.6 78.5749L34.1 71.2415C33.5133 70.4349 32.1567 69.7749 31.1667 69.7749H29.3333C14.6667 69.7749 7.33333 66.1082 7.33333 47.7749V29.4415C7.33333 14.7749 14.6667 7.44153 29.3333 7.44153H51.3333" stroke="#021442" stroke-width="3" stroke-miterlimit="10" stroke-linecap="round" stroke-linejoin="round"/>
<path d="M71.5 25.7749C73.9311 25.7749 76.2627 24.8091 77.9818 23.09C79.7009 21.3709 80.6667 19.0393 80.6667 16.6082C80.6667 14.177 79.7009 11.8455 77.9818 10.1264C76.2627 8.4073 73.9311 7.44153 71.5 7.44153C69.0688 7.44153 66.7373 8.4073 65.0182 10.1264C63.2991 11.8455 62.3333 14.177 62.3333 16.6082C62.3333 19.0393 63.2991 21.3709 65.0182 23.09C66.7373 24.8091 69.0688 25.7749 71.5 25.7749Z" stroke="#021442" stroke-width="3" stroke-linecap="round" stroke-linejoin="round"/>
<path d="M58.652 40.4415H58.6887M43.9817 40.4415H44.0183M29.315 40.4415H29.3443" stroke="#021442" stroke-width="3" stroke-linecap="round" stroke-linejoin="round"/>
</svg>
